<svg xmlns="http://www.w3.org/2000/svg" viewBox="0 0 1000 1000" role="img" aria-labelledby="title">
  <title>Jamii Aide Logomark</title>
  <path fill="#1B19A8" d="M245.07,210.45C247.229,198.118 246.664,197.987 251.383,186.447C282.138,111.251 394.409,111.973 422.146,190.622C424.668,197.774 426.391,223.595 448.479,226.643C454.818,227.518 719.38,226.772 723.334,226.995C726.76,227.188 723.116,229.048 702.908,264.723C682.901,300.044 535.125,552.014 535.359,553.55C535.543,554.754 536.298,554.163 682.499,554.299C769.465,554.379 777.591,551.983 798.778,566.09C818.304,579.091 824.436,595.114 827.958,603.299C833.95,617.223 874.43,711.293 902.018,777.706C927.343,838.673 943.751,872.943 943.929,879.484C944.376,895.885 929.987,893.52 893.5,893.483C811.001,893.398 794.388,895.973 768.732,879.142C704.733,837.158 718.045,745.804 779.68,717.905C785.063,715.469 782.122,713.758 779.887,708.358C755.358,649.093 753.828,639.36 728.495,639.307L556.5,639.339C506.147,639.326 495.113,637.084 479.785,651.803C474.458,656.918 473.938,657.417 431.867,730.717C392.668,799.012 392.11,798.678 388.836,804.691C334.043,905.33 225.485,907.567 166.764,873.026C42.394,799.868 54.74,620.692 185.343,566.138C218.785,552.169 226.782,554.391 376.501,554.291C413.441,554.267 425.579,556.503 441.411,542.397C447.577,536.903 447.654,536.709 528.033,398.239C576.696,314.409 579.591,312.5 576.434,311.934C576.405,311.929 542.455,311.931 539.5,311.931L337.5,312.003C280.794,311.899 239.449,268.013 245.07,210.45ZM166.1,708.431C151.905,793.505 249.658,841.085 303.1,782.139C312.563,771.702 332.208,733.736 359.088,689.237C361.366,685.466 374.105,664.378 386.681,641.577C388.969,637.429 384.286,639.452 327.5,639.36C242.826,639.222 242.858,639.145 235.546,639.951C220.278,641.635 176.676,655.179 166.1,708.431ZM343.417,186.908C337.948,186.267 337.986,186.228 337.51,186.216C301.489,185.272 296.005,225.35 300.35,226.842C303.5,227.924 364.913,227.074 370.526,226.996C371.229,226.986 374.326,226.944 372.647,218.473C367.453,192.263 348.363,188.406 343.417,186.908ZM825.594,836.901C827.235,836.45 828.901,836.091 830.542,835.64C834.495,834.555 832.872,832.704 830.622,827.444C806.083,770.076 807.017,766.677 803.447,768.375C767.284,785.571 781.271,844.581 825.594,836.901Z"/>
</svg>
